<svg width="41" height="41" viewBox="0 0 41 41" fill="none" xmlns="http://www.w3.org/2000/svg">
<rect width="40.6154" height="40.6154" rx="8" fill="white"/>
<g clip-path="url(#clip0_522_212)">
<path d="M20.3077 10.4359C22.9899 10.4359 23.3245 10.4458 24.3769 10.4951C25.4282 10.5445 26.1439 10.7094 26.7737 10.9542C27.4253 11.2049 27.9741 11.5445 28.523 12.0924C29.025 12.5859 29.4134 13.1828 29.6612 13.8417C29.9051 14.4705 30.0709 15.1872 30.1203 16.2386C30.1667 17.2909 30.1795 17.6255 30.1795 20.3077C30.1795 22.9899 30.1696 23.3245 30.1203 24.3769C30.0709 25.4282 29.9051 26.1439 29.6612 26.7737C29.4141 27.4329 29.0256 28.03 28.523 28.523C28.0294 29.0248 27.4325 29.4132 26.7737 29.6612C26.1449 29.9051 25.4282 30.0709 24.3769 30.1203C23.3245 30.1667 22.9899 30.1795 20.3077 30.1795C17.6255 30.1795 17.2909 30.1696 16.2386 30.1203C15.1872 30.0709 14.4715 29.9051 13.8417 29.6612C13.1826 29.4139 12.5855 29.0254 12.0924 28.523C11.5903 28.0296 11.2019 27.4326 10.9542 26.7737C10.7094 26.1449 10.5445 25.4282 10.4951 24.3769C10.4487 23.3245 10.4359 22.9899 10.4359 20.3077C10.4359 17.6255 10.4458 17.2909 10.4951 16.2386C10.5445 15.1862 10.7094 14.4715 10.9542 13.8417C11.2012 13.1824 11.5897 12.5853 12.0924 12.0924C12.5857 11.5902 13.1827 11.2017 13.8417 10.9542C14.4715 10.7094 15.1862 10.5445 16.2386 10.4951C17.2909 10.4487 17.6255 10.4359 20.3077 10.4359ZM20.3077 15.3718C18.9986 15.3718 17.7432 15.8918 16.8175 16.8175C15.8918 17.7432 15.3718 18.9986 15.3718 20.3077C15.3718 21.6168 15.8918 22.8723 16.8175 23.7979C17.7432 24.7236 18.9986 25.2436 20.3077 25.2436C21.6168 25.2436 22.8723 24.7236 23.7979 23.7979C24.7236 22.8723 25.2436 21.6168 25.2436 20.3077C25.2436 18.9986 24.7236 17.7432 23.7979 16.8175C22.8723 15.8918 21.6168 15.3718 20.3077 15.3718ZM26.7244 15.125C26.7244 14.7977 26.5944 14.4839 26.363 14.2525C26.1315 14.021 25.8177 13.891 25.4904 13.891C25.1631 13.891 24.8493 14.021 24.6178 14.2525C24.3864 14.4839 24.2564 14.7977 24.2564 15.125C24.2564 15.4523 24.3864 15.7662 24.6178 15.9976C24.8493 16.229 25.1631 16.359 25.4904 16.359C25.8177 16.359 26.1315 16.229 26.363 15.9976C26.5944 15.7662 26.7244 15.4523 26.7244 15.125ZM20.3077 17.3462C21.0932 17.3462 21.8464 17.6582 22.4018 18.2136C22.9572 18.769 23.2692 19.5223 23.2692 20.3077C23.2692 21.0932 22.9572 21.8464 22.4018 22.4018C21.8464 22.9572 21.0932 23.2692 20.3077 23.2692C19.5223 23.2692 18.769 22.9572 18.2136 22.4018C17.6582 21.8464 17.3462 21.0932 17.3462 20.3077C17.3462 19.5223 17.6582 18.769 18.2136 18.2136C18.769 17.6582 19.5223 17.3462 20.3077 17.3462Z" fill="#F77F00"/>
</g>
<defs>
<clipPath id="clip0_522_212">
<rect width="23.6923" height="23.6923" fill="white" transform="translate(8.46155 8.46155)"/>
</clipPath>
</defs>
</svg>
