<svg width="41" height="41" viewBox="0 0 41 41" fill="none"
  xmlns="http://www.w3.org/2000/svg">
  <rect x="0.384521" width="40.6154" height="40.6154" rx="8" fill="white"/>
  <g clip-path="url(#clip0_522_207)">
    <path d="M15.6971 13.3975C15.6968 13.9211 15.4885 14.4232 15.1181 14.7933C14.7476 15.1633 14.2454 15.3711 13.7217 15.3708C13.1981 15.3706 12.696 15.1623 12.3259 14.7919C11.9559 14.4214 11.7481 13.9191 11.7484 13.3955C11.7486 12.8719 11.9569 12.3698 12.3273 11.9997C12.6978 11.6296 13.2001 11.4219 13.7237 11.4221C14.2473 11.4224 14.7494 11.6306 15.1195 12.0011C15.4896 12.3715 15.6973 12.8738 15.6971 13.3975ZM15.7563 16.8328H11.8076V29.1923H15.7563V16.8328ZM21.9953 16.8328H18.0663V29.1923H21.9558V22.7066C21.9558 19.0935 26.6646 18.7579 26.6646 22.7066V29.1923H30.564V21.364C30.564 15.2731 23.5945 15.5002 21.9558 18.4913L21.9953 16.8328Z" fill="#F77F00"/>
  </g>
  <defs>
    <clipPath id="clip0_522_207">
      <rect width="23.6923" height="23.6923" fill="white" transform="translate(8.84607 8.46155)"/>
    </clipPath>
  </defs>
</svg>
