<svg width="172" height="58" viewBox="0 0 172 58" fill="none"
  xmlns="http://www.w3.org/2000/svg">
  <path d="M32.0638 1.88235C30.0745 1.05882 27.9681 0.352941 25.7447 0.117647C25.2766 0 24.8085 0 24.3404 0C24.1064 0 23.7553 0 23.5213 0C23.2872 0 23.0532 0 22.8191 0C22.5851 0 22.4681 0 22.234 0C20.8298 0 19.5426 0.235294 18.2553 0.470588C17.2021 0.705882 16.1489 0.941177 15.2128 1.29412C12.5213 2.23529 10.1809 3.64706 8.07447 5.41176C7.72341 6.35294 7.60638 7.41177 7.60638 8.47059C7.60638 11.4118 8.7766 14 10.766 15.8824L18.2553 11.2941L24.4574 7.52941L24.5745 7.41177L25.7447 6.70588L27.617 5.52941L29.2553 4.58824L30.7766 3.64706L33 2.23529C32.6489 2.11765 32.4149 2 32.0638 1.88235Z" fill="#F77F00"/>
  <path d="M21.2979 19.7646C20.7128 19.2941 20.0106 18.9411 19.3085 18.7058C18.9574 18.5882 18.6064 18.4705 18.2553 18.3529C17.4362 18.1176 16.5 17.9999 15.5638 17.9999C15.0957 17.9999 14.5106 17.9999 14.0426 18.1176C12.2872 18.3529 10.766 19.0588 9.3617 20.1176C8.54255 19.5294 7.84042 18.9411 7.25532 18.1176C5.85106 16.3529 4.91489 13.9999 4.91489 11.5294C4.91489 10.2352 5.14894 8.94112 5.61702 7.76465C2.10638 11.7646 0.117021 16.9411 0 22.4705C0 22.5882 0 22.7058 0 22.7058C0 24.9411 0.351064 27.0588 0.93617 29.0588C2.45745 34.3529 5.85106 38.8235 10.2979 41.7646C11.3511 42.4705 12.4043 43.0588 13.4574 43.5294C14.9787 44.2352 16.617 44.7058 18.2553 45.0588V48.5882C18.2553 52.8235 20.8298 56.4705 24.4574 57.9999V43.647L24.5745 43.7646L25.8617 44.5882V28.3529C25.8617 26.4705 25.3936 24.7058 24.4574 23.1764C23.6383 21.7646 22.5851 20.7058 21.2979 19.7646Z" fill="#F77F00"/>
  <path d="M56.5051 32.7144V51.8795H48.8136V32.7144H41V25.1206H64.3187V32.8349H56.5051V32.7144Z" fill="#F77F00"/>
  <path d="M66.2721 25.1206H73.9636V39.4644C73.9636 40.7902 74.452 41.8751 75.4287 42.8394C76.4054 43.8036 77.5042 44.2858 78.8471 44.2858C80.1901 44.2858 81.2889 43.8036 82.2656 42.8394C83.2423 41.8751 83.7306 40.7902 83.7306 39.4644V25.1206H91.5442V39.4644C91.5442 42.9599 90.3234 45.8527 87.8816 48.2635C85.4398 50.6742 82.3877 51.8795 78.9692 51.8795C75.4287 51.8795 72.4986 50.6742 70.0568 48.2635C67.6151 45.8527 66.3942 42.8394 66.3942 39.4644V25.1206H66.2721Z" fill="#F77F00"/>
  <path d="M136.472 52V39.2232L123.653 52H112.665L139.769 25.2411H144.286V52H136.472Z" fill="#F77F00"/>
  <path d="M154.542 39.2232V52H146.728V25.2411H151.245L164.186 38.0179V25.2411H172V52H167.483L154.542 39.2232Z" fill="#F77F00"/>
  <path d="M136.961 25.2411L128.781 33.317H107.904C106.439 33.317 105.218 33.7991 104.241 34.8839C103.265 35.8482 102.654 37.1741 102.654 38.5C102.654 39.8259 103.143 41.1518 104.241 42.1161C105.218 43.0804 106.561 43.683 107.904 43.683H118.281L109.857 52H107.904C104.119 52 100.945 50.6741 98.2591 48.0223C95.5732 45.3705 94.2302 42.2366 94.2302 38.5C94.2302 34.7634 95.5732 31.6295 98.2591 28.9777C100.823 26.3259 104.119 25 107.904 25L136.961 25.2411Z" fill="#F77F00"/>
</svg>
