<svg width="35" height="62" viewBox="0 0 35 62"
  xmlns="http://www.w3.org/2000/svg">
  <path d="M34.0071 2C31.8972 1.125 29.6631 0.375 27.305 0.125C26.8085 0 26.3121 0 25.8156 0C25.5674 0 25.195 0 24.9468 0C24.6986 0 24.4504 0 24.2021 0C23.9539 0 23.8298 0 23.5816 0C22.0922 0 20.727 0.25 19.3617 0.5C18.2447 0.75 17.1277 1 16.1348 1.375C13.2801 2.375 10.7979 3.875 8.56384 5.75C8.1915 6.75 8.06738 7.875 8.06738 9C8.06738 12.125 9.30852 14.875 11.4184 16.875L19.3617 12L25.9397 8L26.0638 7.875L27.305 7.125L29.2908 5.875L31.0284 4.875L32.6418 3.875L35 2.375C34.6277 2.25 34.3794 2.125 34.0071 2Z" fill="#F77F00"/>
  <path d="M22.5887 21C21.9681 20.5 21.2234 20.125 20.4787 19.875C20.1064 19.75 19.734 19.625 19.3617 19.5C18.4929 19.25 17.5 19.125 16.5071 19.125C16.0106 19.125 15.3901 19.125 14.8936 19.25C13.0319 19.5 11.4184 20.25 9.92908 21.375C9.06028 20.75 8.3156 20.125 7.69504 19.25C6.20567 17.375 5.21277 14.875 5.21277 12.25C5.21277 10.875 5.46099 9.5 5.95745 8.25C2.23404 12.5 0.124113 18 0 23.875C0 24 0 24.125 0 24.125C0 26.5 0.37234 28.75 0.992908 30.875C2.60638 36.5 6.20567 41.25 10.922 44.375C12.039 45.125 13.156 45.75 14.273 46.25C15.8865 47 17.6241 47.5 19.3617 47.875V51.625C19.3617 56.125 22.0922 60 25.9397 61.625V46.375L26.0638 46.5L27.4291 47.375V30.125C27.4291 28.125 26.9326 26.25 25.9397 24.625C25.0709 23.125 23.9539 22 22.5887 21Z" fill="#F77F00"/>
</svg>
